
<svg xmlns="http://www.w3.org/2000/svg" width="101.0" height="110.0" viewBox="0 0 101.0 110.0">
  <defs>
    <linearGradient id="diamond_container" x1="103.97" y1="62.55" x2="-9.26" y2="62.55" gradientUnits="userSpaceOnUse">
      <stop offset="0.08" stop-color="#faf5a4" stop-opacity="1" />
      <stop offset="0.33" stop-color="#feb0fe" stop-opacity="1" />
      <stop offset="0.58" stop-color="#abb3fc" stop-opacity="1" />
      <stop offset="0.85" stop-color="#41f3e7" stop-opacity="1" />
    </linearGradient>
    <linearGradient id="diamond_container_lip" x1="103.44" y1="66.55" x2="-9.79" y2="66.55" gradientUnits="userSpaceOnUse">
      <stop offset="0.08" stop-color="#ece68e" stop-opacity="1" />
      <stop offset="0.33" stop-color="#f198f1" stop-opacity="1" />
      <stop offset="0.58" stop-color="#8a94f0" stop-opacity="1" />
      <stop offset="0.85" stop-color="#2fe7da" stop-opacity="1" />
    </linearGradient>
  </defs>
  <path stroke="url(#diamond_container_lip)" d="M39.59,25.75C29.68,32.73 21.03,41.37 14.05,51.29C9.45,57.85 9.45,66.72 14.05,73.28C21.03,83.19 29.68,91.87 39.63,98.85C46.18,103.45 55.02,103.45 61.58,98.85C71.5,91.87 80.17,83.23 87.15,73.28C91.75,66.72 91.75,57.88 87.15,51.32C80.17,41.41 71.53,32.73 61.58,25.75C55.02,21.15 46.18,21.15 39.63,25.75H39.59Z" stroke-width="4.5" stroke-linecap="round" stroke-linejoin="round"/>
  <path fill="url(#diamond_container)" stroke="url(#diamond_container)" d="M39.59,21.75C29.68,28.73 21.03,37.38 14.05,47.29C9.45,53.85 9.45,62.72 14.05,69.28C21.03,79.19 29.68,87.87 39.63,94.85C46.18,99.45 55.02,99.45 61.58,94.85C71.5,87.87 80.17,79.23 87.15,69.28C91.75,62.72 91.75,53.88 87.15,47.32C80.17,37.41 71.53,28.73 61.58,21.75C55.02,17.15 46.18,17.15 39.63,21.75H39.59Z" stroke-width="4.5" stroke-linecap="round" stroke-linejoin="round"/>  
  <path d="M41.19,23.63C46.97,19.57 54.78,19.57 60.56,23.63C70.29,30.46 78.75,38.95 85.58,48.65C89.64,54.44 89.64,62.24 85.58,68.02C78.75,77.75 70.26,86.21 60.55,93.05C54.77,97.1 46.97,97.1 41.19,93.04C31.46,86.22 23,77.73 16.16,68.02C12.11,62.24 12.11,54.4 16.16,48.62C22.94,38.99 31.33,30.58 40.95,23.78C41.03,23.73 41.11,23.68 41.19,23.63Z" fill="#FFFBE8"/>
  
  <path d="M47.75,9.81C48.34,13.95 45.54,17.78 41.49,18.36C37.44,18.94 33.68,16.04 33.09,11.9C32.5,7.75 35.3,3.92 39.35,3.34C43.4,2.77 47.16,5.66 47.75,9.81Z" fill="#ffb100ff"/>
  <path d="M31.18,7.05L41.51,12.74C42.06,13.04 42.17,13.77 41.73,14.18C39.58,16.13 36.28,16.47 33.55,14.97C30.82,13.46 29.35,10.49 29.85,7.64C29.95,7.05 30.63,6.75 31.18,7.05Z" fill="#ffb100ff"/>
  <path d="M29.78,8.08C30.79,10.84 35.02,12.56 39.42,11.84L32.01,13.86C30.4,12.34 29.56,10.2 29.78,8.08Z" fill="#ffb100ff"/>
  <path d="M28.24,13.76C21.96,16.49 23.34,20.79 23.2,22.89L23.76,36.65C23.84,38.67 22.28,40.38 20.26,40.48L17.62,40.62C17.28,40.65 17.04,41.07 17.07,42.11C17.43,46.85 23.02,51.53 27.58,51.18L34.37,50.16L59.34,41.06C58.54,32.75 59.88,29.62 56.5,17.34C56.04,15.32 54.39,13.27 52.42,12.6C46.44,10.54 34.52,11.03 28.24,13.76Z" fill="#ffb100ff"/>
  <path d="M28.24,13.76C21.96,16.49 23.34,20.79 23.2,22.89L23.76,36.65C23.84,38.67 22.28,40.38 20.26,40.48L17.62,40.62C17.28,40.65 17.04,41.07 17.07,42.11C17.43,46.85 23.02,51.53 27.58,51.18L34.37,50.16L59.34,41.06C58.54,32.75 59.88,29.62 56.5,17.34C56.04,15.32 54.39,13.27 52.42,12.6C46.44,10.54 34.52,11.03 28.24,13.76Z" fill="#ffb100ff"/>
  <path d="M27.33,21.93C27.13,19.23 29.16,16.87 31.87,16.66L56.82,18.04C58.96,25.79 60.74,45.46 61.18,55.75L29.72,48.43L27.33,21.93Z" fill="#ffd4c9ff"/>
  <path d="M35.9,16.89C35.67,17.67 35.62,18.6 35.75,19.6L37.79,45.59L61.12,54.52C60.6,43.96 58.88,25.49 56.81,18.04L35.9,16.89Z" fill="#ffd4c9ff"/>
  <path d="M26.89,21.39C26.69,18.75 28.53,16.46 31.01,16.27C33.48,16.08 35.65,18.07 35.85,20.71L36.14,24.47C36.34,27.11 34.5,29.41 32.02,29.6C29.55,29.78 27.38,27.79 27.18,25.15L26.89,21.39Z" fill="#ffb100ff"/>
  <path d="M31.62,28.78C31.86,30.58 30.69,32.22 28.99,32.45C27.3,32.68 25.73,31.41 25.49,29.61C25.24,27.81 26.42,26.16 28.12,25.94C29.81,25.71 31.38,26.98 31.62,28.78Z" fill="#ffd4c9ff"/>
  <path d="M41.8,30.15C43.39,28.84 45.83,29.41 46.84,30.64C47.85,31.87 48.06,32.31 49.32,32.69C50.59,33.07 52.09,33.83 52.18,35.96C52.26,38.1 50.83,39.76 48.29,39.9C45.75,40.05 43.41,38.77 41.76,36.54C40.12,34.3 40.21,31.45 41.8,30.15Z" fill="#a41414ff"/>
  <path d="M50.54,24.81C50.69,22.69 52.18,21.06 53.99,21.16C55.81,21.26 57.17,23.06 57.02,25.17L56.94,26.3C56.8,28.41 55.28,29.96 53.4,29.81C51.52,29.65 50.31,28.24 50.45,26.12L50.54,24.81Z" fill="#ffffffff"/>
  <path d="M40.44,24.06C40.58,21.75 42.57,20 44.89,20.14C47.2,20.29 48.95,22.28 48.81,24.58L48.74,25.66C48.6,27.96 46.61,29.72 44.29,29.57C41.98,29.43 40.22,27.44 40.37,25.13L40.44,24.06Z" fill="#ffffffff"/>
  <path d="M52.67,29.31C53.13,29.98 53.01,31.05 52.29,31.56C51.58,32.06 50.55,31.81 50.09,31.14C49.63,30.46 49.76,27.95 49.81,27.91C49.86,27.87 52.21,28.63 52.67,29.31Z" fill="#ee9583ff"/>
  <path d="M43.86,27.24C41.99,27.08 40.66,27.51 40.06,27.8L39.3,30.68L47.88,32.26L47.67,28.96C47.09,28.25 45.74,27.4 43.86,27.24Z" fill="#ffd4c9ff"/>
  <path d="M48.13,32.11C47.61,32.6 46.91,32.88 46.14,32.83C45.39,32.78 44.73,32.43 44.28,31.89C43.76,32.59 42.91,33.02 41.97,32.96C41.46,32.93 40.99,32.75 40.6,32.47C40.72,31.53 41.12,30.7 41.8,30.15C43.39,28.84 45.83,29.41 46.83,30.64C46.96,30.8 47.07,30.94 47.18,31.07C47.55,31.54 47.82,31.86 48.13,32.11Z" fill="#ffffffff"/>
  <path d="M50.55,39.23C49.95,39.61 49.19,39.85 48.29,39.9C45.91,40.04 43.72,38.93 42.1,36.97C43.12,36.27 44.38,35.89 45.71,35.98C47.87,36.11 49.67,37.41 50.55,39.23Z" fill="#ee4646ff"/>
  <path d="M67.91,48.39C64.84,49.85 61.94,53.67 61.33,55.3L73.58,72.92C79.09,70.29 84.53,66.71 88.54,61.39C90.94,58.21 91.86,54.8 91.99,51.42C92.13,47.66 88.45,45.17 84.73,45.73L76.06,47.03C74.84,46.92 70.98,46.94 67.91,48.39Z" fill="#ffd4c9ff"/>
  <path d="M71.82,83.79L74.8,68.27C76.92,57.27 69.09,46.83 57.93,45.77L40.05,44.08C27.58,42.9 17.4,53.91 19.54,66.25L20.94,74.31C26.8,81.41 33.59,87.71 41.14,93.01C46.92,97.06 54.73,97.06 60.51,93.01C64.49,90.2 68.28,87.12 71.82,83.79Z" fill="#ffffffff"/>
  <path d="M34.87,72.74C64.86,81.8 74.97,71.68 74.97,62.08C73.92,53.62 67.74,46.63 59.59,45.77L39.06,44.04C34.26,44.04 32.44,48.52 33.02,52.12L34.87,72.74Z" fill="#ffffffff"/>
  <path d="M71.82,83.79L73.01,77.62C72.86,77.59 72.71,77.57 72.56,77.54C72.01,77.45 71.44,77.35 70.88,77.28C66.05,76.63 60.41,76.36 54.35,76.36C44.98,76.35 34.42,76.98 24.08,77.93C26.53,80.64 29.13,83.22 31.86,85.65C39.67,85.06 47.38,84.7 54.35,84.7C60.19,84.71 65.44,84.97 69.77,85.55L69.87,85.56C69.88,85.56 69.88,85.56 69.89,85.56C70.54,84.98 71.18,84.39 71.82,83.79Z" fill="#ff7979ff"/>
  <path d="M28.15,82.18C29.47,82.08 30.66,81.63 31.42,80.89C33.76,78.6 39.03,67.25 39.76,60.93C40.5,54.61 34.95,47.68 29.75,47.2C24.54,46.71 20.13,49.41 17.74,55.86C16.15,60.14 17.08,66.17 18.47,71.2C21.44,75.08 24.67,78.75 28.15,82.18Z" fill="#ffd4c9ff"/>
  <path d="M33.2,86.83C33.65,86.92 34.11,87 34.59,87.07C41.69,88.08 54.6,83.85 59.55,82.1C60.76,81.67 61.52,80.51 61.37,79.24C60.94,75.68 59.55,68.91 55.23,68.68C54.07,68.61 52.85,68.53 51.6,68.45C46.53,68.12 41.03,67.76 37.66,68.45C33.97,69.22 26.58,71.83 22.96,76.35C22.91,76.41 22.87,76.47 22.83,76.53C26.03,80.2 29.5,83.65 33.2,86.83Z" fill="#ffd4c9ff"/>
  <path d="M35.43,15.12C35.37,13.98 36.13,12.17 37.23,11.93C42.7,10.75 48.66,11.16 52.72,12.62C54.56,13.29 56.1,15.33 56.53,17.35C56.62,17.72 56.71,18.08 56.8,18.44L35.61,18.85L35.43,15.12Z" fill="#ffb100ff"/>
  <path d="M23.11,19.42C22.61,19.65 22.32,20.17 22.35,20.71L22.48,23.51C22.5,23.95 22.96,24.24 23.37,24.08C31.38,20.87 39.89,19.05 46.83,19.38C53,19.68 55.64,20.43 57.4,21.3C57.72,21.46 58.11,21.19 58.04,20.83L57.53,17.95C57.45,17.51 57.19,17.14 56.82,16.91C55.42,16.04 53.5,14.93 46.62,14.69C39.01,14.41 30.35,15.92 23.11,19.42Z" fill="#ff4b4bff"/>
  <path d="M35.84,20.33C35.45,19.94 35.25,15.7 35.45,15.5C39.27,14.81 43.01,14.56 46.62,14.69C53.5,14.93 55.42,16.04 56.82,16.91C57.19,17.14 57.45,17.51 57.53,17.95L58.04,20.83C58.09,21.31 57.64,21.41 57.43,21.34C53.35,19.91 52,19.63 46.83,19.38C43.46,19.22 39.72,19.57 35.84,20.33Z" fill="#ff4b4bff"/>
  <path d="M75.76,47.79L79.43,69.63C80.76,68.91 82.05,68.1 83.3,67.17C84.9,65.91 86.41,64.5 87.79,62.91C92.14,57.87 92.33,51.79 91.66,46.32C91.1,41.73 88.15,36.34 85.78,32.81L73.58,34.86L74.71,41.55L75.76,47.79Z" fill="#ffd4c9ff"/>
  <path d="M74.96,43.03L73.58,34.86L85.78,32.81C87.04,34.69 88.47,37.1 89.62,39.64C89.74,41.45 86.9,43.57 83.04,44.48C79.12,45.42 75.57,44.76 74.96,43.03Z" fill="#ff4b4bff"/>
  <path d="M81.33,21.33a9,8.98 110.8,1 1,-6.39 16.83a9,8.98 110.8,1 1,6.39 -16.83z" fill="#ffd4c9ff"/>
  <path d="M75.31,28.54L85.35,22.87C86,22.5 86.08,21.59 85.5,21.13L61.12,1.54C60.24,0.83 59.02,1.82 59.51,2.83L68.22,20.47C68.47,20.99 68.26,21.62 67.74,21.88L61,25.22C60.43,25.5 60.29,26.23 60.7,26.71L88.58,58.91C89.76,60.27 91.89,58.78 91.03,57.21L75.31,28.54Z" fill="#ffb100ff"/>
  <path d="M52.17,23.41L52.17,23.41A1.71,1.7 108.56,0 1,53.86 25.13L53.84,26.3A1.71,1.7 108.56,0 1,52.13 28L52.13,28A1.71,1.7 108.56,0 1,50.44 26.28L50.46,25.12A1.71,1.7 108.56,0 1,52.17 23.41z" fill="#3d3d3dff"/>
  <path d="M55.71,64.9C55.19,66.88 54.31,70.87 54.69,73.88C55.22,78.04 57.4,80.86 58.95,82.34C60.63,81.76 62.62,80.95 65.95,78.86C69.28,76.77 71.74,66.78 70.83,65.46C69.91,64.15 65.33,60.43 63.76,60.34C62.67,60.28 59.02,62.12 57.17,63.1C56.45,63.47 55.92,64.12 55.71,64.9Z" fill="#ffd4c9ff"/>
  <path d="M55.7,64.91C55.18,66.88 54.29,70.87 54.67,73.88C55.2,78.04 57.38,80.86 58.93,82.34C60.62,81.76 62.6,80.95 65.93,78.86C69.26,76.77 71.72,66.79 70.81,65.47C69.89,64.15 65.31,60.44 63.74,60.35C62.66,60.28 59.01,62.12 57.15,63.1C56.43,63.47 55.9,64.12 55.7,64.91Z" fill="#ffa47dff"/>
  <path d="M43.45,22.56L43.45,22.56A1.82,1.82 90.7,0 1,45.25 24.39L45.25,25.35A1.82,1.82 90.7,0 1,43.41 27.15L43.41,27.15A1.82,1.82 90.7,0 1,41.61 25.32L41.62,24.37A1.82,1.82 90.7,0 1,43.45 22.56z" fill="#3d3d3dff"/>
  <path d="M57.78,26.1C56.99,25.41 46.32,24.58 39.29,24.91L38.25,21.81L42.77,19.9L49.46,19.87L57.05,21.81L57.78,26.1Z" fill="#ffd4c9ff"/>
  <path d="M55.52,23.41C54.42,23.53 52.94,23.45 51.65,23.15" fill="#00000000" stroke-linecap="round" stroke-width="2.96421" stroke="#ffb100ff"/>
  <path d="M46.64,20.83C46.64,20.83 44.2,20.36 41.65,20.8" fill="#00000000" stroke-linecap="round" stroke-width="2.96421" stroke="#ffb100ff"/>
  <path d="M85.74,25.44C84.41,22.62 81.93,20.31 78.82,20.05C76.86,19.88 75.1,20.11 73.47,21.04C72.95,21.34 72.66,21.92 72.64,22.52V22.52C72.6,23.75 73.67,24.74 74.89,24.85C77.74,25.09 81.32,26.12 84,27.17C84.93,27.54 86.17,26.35 85.74,25.44V25.44Z" fill="#ffd4c9ff"/>
  <path d="M30.23,47.26C30.07,47.23 29.91,47.21 29.75,47.2C24.54,46.71 20.13,49.41 17.74,55.86C16.2,60.02 17.14,66.14 18.55,71.29C23,77.11 28.06,82.45 33.64,87.2C33.75,87.21 33.86,87.22 33.98,87.22C41.25,88.2 54.52,83.87 59.54,82.1C60.75,81.67 61.52,80.51 61.36,79.24C60.97,75.94 59.76,69.84 56.08,68.77C53.08,74.04 48.12,77.64 41.26,77.64C31.39,77.64 22.38,70.2 22.38,61.02C22.38,55.3 25.49,50.25 30.23,47.26Z" fill="#ffd4c9ff"/>
  <path d="M61.18,77.88C61.25,78.37 61.32,78.83 61.36,79.24C61.52,80.51 60.75,81.67 59.54,82.1C57.35,82.87 53.6,84.13 49.46,85.22C48.78,85.32 48.21,85.39 47.79,85.4C44.69,85.53 42.01,81.77 41.8,77.01C41.6,72.25 43.94,68.3 47.04,68.17C47.09,68.17 47.15,68.17 47.22,68.17C48.57,68.23 49.94,68.32 51.29,68.4C52.61,68.48 53.9,68.56 55.14,68.62C56.89,68.7 58.17,69.83 59.1,71.39L61.18,77.88Z" fill="#ff4b4bff"/>
  <path d="M55.71,64.9C55.19,66.88 54.31,70.87 54.69,73.88C55.22,78.04 57.4,80.86 58.95,82.34C60.63,81.76 62.62,80.95 65.95,78.86C69.28,76.77 71.74,66.78 70.83,65.47C69.91,64.15 65.33,60.43 63.76,60.34C62.67,60.28 59.02,62.12 57.17,63.1C56.45,63.47 55.92,64.12 55.71,64.9Z" fill="#ffd4c9ff"/>
  <path d="M59.66,61.84C60.89,62.63 61.36,63.86 61.44,65.06C61.51,66.07 61.32,67.1 61.09,67.94L62.42,68.76C62.77,68.98 62.88,69.43 62.66,69.78C62.44,70.13 61.98,70.24 61.63,70.03L59.81,68.9C59.51,68.72 59.38,68.36 59.49,68.03C59.77,67.2 60.02,66.14 59.95,65.17C59.88,64.22 59.53,63.45 58.66,62.98C58.35,62.81 58.02,62.76 57.7,62.82C58.28,62.52 58.96,62.17 59.66,61.84Z" fill="#ee9583ff"/>
  <path d="M82.44,23.52C81.75,23.39 79.96,23.36 79.1,23.49C76.64,23.69 72.93,25.44 72.56,27.95C72.02,31.62 73.72,33.34 77.22,34.36C80.71,35.38 85.62,33.16 86.95,30.48C87.01,30.36 87.06,30.23 87.11,30.1C87,27.39 85.27,24.86 82.44,23.52Z" fill="#ffd4c9ff"/>
  <path d="M73.23,31.95C73.25,31.92 73.28,31.9 73.31,31.87C74.02,31.13 75.6,30.18 77.71,30.18C78.11,30.18 78.46,29.8 78.5,29.32C78.54,28.85 78.26,28.46 77.86,28.46C75.54,28.46 73.65,29.44 72.59,30.46C72.72,31.02 72.93,31.51 73.23,31.95Z" fill="#ee9583ff"/>
  <path d="M75.17,24.87C76.11,24.6 77.38,24.5 78.77,24.89C79.15,24.99 79.6,24.71 79.77,24.27C79.94,23.82 79.76,23.37 79.38,23.26C77.03,22.61 74.85,23.13 73.58,23.89C73.47,23.95 73.38,24.03 73.31,24.12C73.72,24.53 74.29,24.8 74.89,24.85C74.98,24.86 75.07,24.86 75.17,24.87Z" fill="#ee9583ff"/>
</svg>