

<svg xmlns="http://www.w3.org/2000/svg" width="101.0" height="110.0" viewBox="0 0 101.0 110.0">
  <defs>
    <linearGradient id="diamond_container" x1="103.97" y1="62.55" x2="-9.26" y2="62.55" gradientUnits="userSpaceOnUse">
      <stop offset="0.08" stop-color="#faf5a4" stop-opacity="1" />
      <stop offset="0.33" stop-color="#feb0fe" stop-opacity="1" />
      <stop offset="0.58" stop-color="#abb3fc" stop-opacity="1" />
      <stop offset="0.85" stop-color="#41f3e7" stop-opacity="1" />
    </linearGradient>
    <linearGradient id="diamond_container_lip" x1="103.44" y1="66.55" x2="-9.79" y2="66.55" gradientUnits="userSpaceOnUse">
      <stop offset="0.08" stop-color="#ece68e" stop-opacity="1" />
      <stop offset="0.33" stop-color="#f198f1" stop-opacity="1" />
      <stop offset="0.58" stop-color="#8a94f0" stop-opacity="1" />
      <stop offset="0.85" stop-color="#2fe7da" stop-opacity="1" />
    </linearGradient>
  </defs>
  <path stroke="url(#diamond_container_lip)" d="M39.59,25.75C29.68,32.73 21.03,41.37 14.05,51.29C9.45,57.85 9.45,66.72 14.05,73.28C21.03,83.19 29.68,91.87 39.63,98.85C46.18,103.45 55.02,103.45 61.58,98.85C71.5,91.87 80.17,83.23 87.15,73.28C91.75,66.72 91.75,57.88 87.15,51.32C80.17,41.41 71.53,32.73 61.58,25.75C55.02,21.15 46.18,21.15 39.63,25.75H39.59Z" stroke-width="4.5" stroke-linecap="round" stroke-linejoin="round"/>
  <path fill="url(#diamond_container)" stroke="url(#diamond_container)" d="M39.59,21.75C29.68,28.73 21.03,37.38 14.05,47.29C9.45,53.85 9.45,62.72 14.05,69.28C21.03,79.19 29.68,87.87 39.63,94.85C46.18,99.45 55.02,99.45 61.58,94.85C71.5,87.87 80.17,79.23 87.15,69.28C91.75,62.72 91.75,53.88 87.15,47.32C80.17,37.41 71.53,28.73 61.58,21.75C55.02,17.15 46.18,17.15 39.63,21.75H39.59Z" stroke-width="4.5" stroke-linecap="round" stroke-linejoin="round"/>  
  <path d="M41.19,23.63C46.97,19.57 54.78,19.57 60.56,23.63C70.29,30.46 78.75,38.95 85.58,48.65C89.64,54.44 89.64,62.24 85.58,68.02C78.75,77.75 70.26,86.21 60.55,93.05C54.77,97.1 46.97,97.1 41.19,93.04C31.46,86.22 23,77.73 16.16,68.02C12.11,62.24 12.11,54.4 16.16,48.62C22.94,38.99 31.33,30.58 40.95,23.78C41.03,23.73 41.11,23.68 41.19,23.63Z" fill="#FFFBE8"/>
  
  <path d="M33.3,80.43C32.55,80.14 31.87,79.71 31.36,79.16L38.08,66.88C38.81,67.01 39.57,67.31 40.22,67.78L52.55,76.84C54.64,78.37 55.27,81.21 54.03,83.48L53.97,83.59C52.72,85.86 49.99,86.86 47.58,85.93L33.3,80.43Z" fill="#86401fff"/>
  <path d="M28.64,63.44L37.82,70.76L34.31,77.02L23.57,73.55L28.64,63.44Z" fill="#cd7900ff"/>
  <path d="M18.64,64.73C18.58,64.12 19.25,63.71 19.77,64.02L26.61,68.15C26.82,68.27 26.95,68.49 26.97,68.73L27.37,73.33C27.4,73.65 27.21,73.96 26.91,74.08L22.66,75.87C22.44,75.97 22.18,75.95 21.98,75.82L15.14,71.7C14.61,71.38 14.67,70.6 15.24,70.36L18.99,68.78L18.64,64.73Z" fill="#fdb02aff"/>
  <path d="M22.8,57.84C22.74,57.23 23.41,56.82 23.93,57.13L30.77,61.26C30.98,61.39 31.11,61.6 31.13,61.84L31.53,66.44C31.56,66.76 31.37,67.07 31.07,67.2L26.82,68.98C26.6,69.08 26.34,69.06 26.14,68.93L19.3,64.81C18.77,64.49 18.83,63.71 19.4,63.47L23.15,61.9L22.8,57.84Z" fill="#fdb02aff"/>
  <path d="M15.68,58.25C15.63,57.64 16.29,57.22 16.82,57.54L23.66,61.67C23.86,61.79 24,62.01 24.02,62.25L24.42,66.85C24.45,67.17 24.26,67.48 23.96,67.6L19.7,69.39C19.48,69.48 19.23,69.47 19.03,69.34L12.19,65.22C11.66,64.9 11.72,64.12 12.28,63.88L16.04,62.3L15.68,58.25Z" fill="#ffca42ff"/>
  <path d="M92.08,20.25L94.8,23.63L52.71,53.18L50.89,51.5L92.08,20.25Z" fill="#86401fff"/>
  <path d="M100.49,18.04C100.65,17.43 100.23,16.82 99.61,16.77L79.77,15.08C78.76,15 78.28,16.29 79.1,16.89L89.68,24.61L93.23,37.22C93.5,38.2 94.88,38.19 95.15,37.22L100.49,18.04Z" fill="#ffca42ff"/>
  <path d="M39.94,35.89L31.75,48.47L20.04,44.04C14.94,41.8 12.64,35.84 14.88,30.75L17.06,25.8C19.31,20.71 25.26,18.4 30.36,20.65L34.78,22.6C39.87,24.85 42.18,30.8 39.94,35.89Z" fill="#3d3d3dff"/>
  <path d="M23.41,22.93C21.28,17.79 23.72,11.89 28.86,9.75L35.58,6.96C40.72,4.83 46.62,7.26 48.76,12.41L55.61,28.92C57.75,34.07 55.31,39.97 50.17,42.1L43.45,44.89C38.31,47.03 32.41,44.59 30.27,39.45L23.41,22.93Z" fill="#3d3d3dff"/>
  <path d="M32.62,19.15C30.48,14 31.31,8.77 34.47,7.46L36.2,6.72C40.22,5.36 44.59,6.68 47.2,9.83C47.73,9.73 48.28,9.67 48.84,9.66L51.2,9.49C56.48,9.11 61.14,12.91 61.83,18.16L63.99,34.65C63.99,34.65 61,34.43 56.24,34.5C55.67,37.79 53.48,40.73 50.17,42.1L49.6,42.34C46.43,43.61 40.57,40.84 38.45,35.72L32.62,19.15Z" fill="#3d3d3dff"/>
  <path d="M28.53,51.61C27.69,48.78 28.48,45.71 30.58,43.64L40.52,33.85C42.02,32.37 44.04,31.55 46.14,31.55H63.57L66.26,51.42C67.23,58.62 61.63,65.03 54.36,65.03H38.47C34.93,65.03 31.81,62.7 30.8,59.3L28.53,51.61Z" fill="#a46648ff"/>
  <path d="M56.73,30.3C59.95,27.43 60.24,22.49 57.38,19.27L55.73,20.73C52.5,23.6 52.21,28.53 55.08,31.76L56.73,30.3Z" fill="#fdb02aff"/>
  <path d="M53.9,28.86C52.62,24.74 48.24,22.44 44.12,23.72L44.78,25.82C46.06,29.94 50.44,32.25 54.56,30.97L53.9,28.86Z" fill="#fdb02aff"/>
  <path d="M48.37,65.03H45.9L66.02,49.64L66.25,51.35L48.37,65.03Z" fill="#86401fff"/>
  <path d="M49.33,60.81L49.33,60.81A7.77,7.77 127.97,0 1,58 67.58L58.11,68.49A7.77,7.77 127.97,0 1,51.34 77.16L51.34,77.16A7.77,7.77 127.97,0 1,42.68 70.39L42.56,69.48A7.77,7.77 127.97,0 1,49.33 60.81z" fill="#fdb02aff"/>
  <path d="M44.8,37.31C44.65,34.75 46.61,32.55 49.17,32.41C51.73,32.27 53.93,34.22 54.07,36.79L54.24,39.77C54.38,42.33 52.42,44.52 49.86,44.66C47.3,44.81 45.11,42.85 44.96,40.29L44.8,37.31Z" fill="#ffffffff"/>
  <path d="M56.89,36.63C56.74,34.07 58.1,31.91 59.92,31.8C61.75,31.7 63.34,33.69 63.48,36.26L63.65,39.24C63.8,41.8 62.44,43.96 60.61,44.06C58.79,44.16 57.2,42.17 57.05,39.61L56.89,36.63Z" fill="#ffffffff"/>
  <path d="M49.49,37.61C50.35,37.55 51,36.76 50.94,35.83C50.93,35.5 50.82,35.2 50.65,34.95C50.84,34.87 51.04,34.82 51.25,34.81C52.3,34.75 53.21,35.63 53.27,36.77L53.41,39.26C53.48,40.4 52.68,41.38 51.62,41.44C50.57,41.49 49.66,40.62 49.6,39.47L49.49,37.61Z" fill="#3d3d3dff"/>
  <path d="M57.75,37.16C58.44,37.1 58.95,36.32 58.9,35.41C58.88,35.05 58.78,34.73 58.63,34.47C58.79,34.38 58.97,34.33 59.16,34.31C60.02,34.27 60.77,35.15 60.84,36.3L60.98,38.9C61.05,40.04 60.4,41.01 59.54,41.06C58.68,41.11 57.93,40.22 57.86,39.08L57.75,37.16Z" fill="#3d3d3dff"/>
  <path d="M54.39,44.14C54.32,43.27 54.96,42.51 55.83,42.44L57.15,42.32C58.02,42.25 58.78,42.9 58.86,43.76C58.93,44.63 58.29,45.39 57.42,45.47L56.1,45.58C55.23,45.65 54.47,45.01 54.39,44.14Z" fill="#86401fff"/>
  <path d="M54.67,44.19C54.79,45.03 55.57,45.61 56.41,45.49C57.24,45.36 57.82,44.58 57.7,43.75C57.58,42.91 55.84,41.19 55.78,41.19C55.71,41.2 54.55,43.36 54.67,44.19Z" fill="#86401fff"/>
  <path d="M43.16,37.16C43.14,33.08 46.43,31.76 50.5,31.74L62.85,31.47L64.26,37.41L55.83,38.33L43.16,37.41L43.16,37.16Z" fill="#a46648ff"/>
  <path d="M23.93,45.52L36.15,34.65C38.9,32.21 42.44,30.87 46.12,30.87H63.52L64.38,37.55L54.32,31.68L43.18,37.49C42.03,38.09 41.04,38.96 40.31,40.03L29.65,55.43L23.93,45.52Z" fill="#fdb02aff"/>
  <path d="M83.71,25.55C83.28,25.88 83.19,26.5 83.51,26.94L85.55,29.74C85.87,30.18 86.49,30.28 86.93,29.97L97.79,22.35L94.06,17.7L83.71,25.55Z" fill="#ffca42ff"/>
  <path d="M40.06,40.39L29.65,55.43L23.93,45.52L36.15,34.65C36.63,34.23 37.14,33.83 37.66,33.48L40.05,40.34L40.06,40.39Z" fill="#fdb02aff"/>
  <path d="M37.81,47C37.81,49.31 35.94,51.18 33.63,51.18C31.32,51.18 29.45,49.31 29.45,47C29.45,44.69 31.32,42.82 33.63,42.82C35.94,42.82 37.81,44.69 37.81,47Z" fill="#a46648ff"/>
  <path d="M47.4,66.58C41.78,67.28 37.78,72.4 38.48,78.02C38.66,79.49 39.61,80.68 40.88,81.23C43.15,82.33 47.33,82.75 52,82.17C58.06,81.41 62.9,79.23 63.7,77.04C64,76.39 64.13,75.64 64.04,74.87C63.34,69.25 58.22,65.25 52.6,65.94L47.4,66.58Z" fill="#fdb02aff"/>
  <path d="M40.95,81.26C43.23,82.34 47.37,82.74 52,82.17C56.42,81.62 60.19,80.31 62.22,78.79C62.96,78.07 63.33,77.3 63.25,76.54C62.97,73.91 57.35,72.36 50.71,73.06C44.06,73.77 38.9,76.48 39.17,79.1C39.26,79.95 39.9,80.68 40.95,81.26Z" fill="#fdb02aff"/>
  <path d="M53.1,44.51C51.22,43.28 48.52,42.67 46.1,43.34L45.71,45.72L52.64,47.24L53.1,44.51Z" fill="#a46648ff"/>
  <path d="M52.11,47C54.07,48.49 56.09,48.84 56.09,48.84" fill="#00000000" stroke-linecap="round" stroke-width="1.5" stroke="#86401fff"/>
  <path d="M61.45,1.38C61.22,0.59 60.39,0.13 59.59,0.36C59.45,0.4 59.32,0.46 59.21,0.53C58.72,0.83 58.42,1.39 58.49,1.99L58.9,5.46C59.04,6.68 59.63,7.8 60.51,8.66C62.36,10.47 64.19,12.63 65.96,15.08L65.9,15.05C66.24,15.5 66.58,15.95 66.91,16.42C71.72,23.43 75.99,32.57 78.7,42.82C81.64,53.95 82.44,64.62 81.44,73.4C82.85,71.65 84.21,69.85 85.51,68C85.7,67.72 85.89,67.44 86.07,67.15C86.32,60.23 85.56,52.89 83.61,44.55C81.99,37.66 79.73,31.24 77.04,25.57C73.26,17.45 68.59,10.72 63.61,6.06C62.9,5.39 62.36,4.57 62.09,3.63L61.45,1.38Z" fill="#86401fff"/>
  <path d="M75.95,40.33C79.33,36.82 84.33,34.65 84.33,34.65" fill="#00000000" stroke-linecap="round" stroke-width="6.0" stroke="#a46648ff"/>
  <path d="M73.8,38.24C76.04,36.43 79.05,35.6 82.09,36.23C87.48,37.35 90.94,42.63 89.82,48.01C88.77,53.05 84.09,56.4 79.08,55.89C73.57,54.42 70.11,48.88 71.29,43.24C71.69,41.31 72.58,39.61 73.8,38.24Z" fill="#a46648ff"/>
  <path d="M38.64,67.08C40.47,68.03 40.46,71.64 38.63,75.13C36.8,78.62 33.84,80.68 32.02,79.72C30.19,78.77 30.2,75.16 32.03,71.67C33.86,68.18 36.82,66.12 38.64,67.08Z" fill="#86401fff"/>
  <path d="M44.18,67.53C40.34,69.4 37.93,73.55 38.48,78.02C38.66,79.49 39.61,80.68 40.88,81.23C40.95,81.26 41.02,81.3 41.1,81.33C45,80.29 47.83,78.67 48.42,77.04C48.72,76.39 48.85,75.64 48.76,74.87C48.37,71.75 46.63,69.13 44.18,67.53Z" fill="#fdb02aff"/>
  <path d="M59.19,80.61C59.9,78.33 55.95,76.93 51.35,77.51C46.76,78.08 43.25,80.61 44.55,82.68" fill="#00000000" stroke-width="4.0" stroke="#ff4b4bff"/>
  <path d="M38.96,68.8C39.12,68.22 39.41,67.67 39.84,67.25C44.22,62.93 50.26,63.08 55.56,65.49C58.68,66.92 60.86,68.99 61.72,71.64C62.59,74.31 62.62,77.19 61.12,80.52L58.35,79.38C59.39,76.78 59.34,74.44 58.54,72.63C57.73,70.8 56.17,69.31 54.15,68.34C50.1,66.39 43.97,67.02 39.75,71.64C39.34,72.09 38.98,72.71 38.49,72.41C38.3,72.3 38.21,72.05 38.19,71.86C38.18,71.7 38.66,69.92 38.96,68.8Z" fill="#3d3d3dff"/>
  <path d="M84.97,50.76L78,42.37L44.68,67.86C44.47,67.98 44.28,68.12 44.11,68.28C43.76,68.61 43.51,69.02 43.35,69.45C43.21,69.85 43.15,70.28 43.19,70.72C43.22,71.05 43.3,71.39 43.45,71.71C43.6,72.04 43.81,72.33 44.05,72.58C44.35,72.88 44.71,73.11 45.09,73.26C45.53,73.43 46.01,73.5 46.49,73.44C46.73,73.42 46.96,73.37 47.18,73.29C47.18,73.29 56.34,69.03 64.41,64.05C74.55,57.81 84.97,50.76 84.97,50.76Z" fill="#a46648ff"/>
  <path d="M38.21,90.9L38.94,87.67C39.5,85.25 40.8,83.19 42.54,81.67L42.53,81.66C45.51,79.1 49.46,77.69 53.66,78.03C57.86,78.14 61.64,79.97 64.32,82.83L64.32,82.84C65.63,84.26 66.6,86.03 67.05,88.02C64.93,89.77 62.75,91.45 60.49,93.03C54.71,97.08 46.91,97.08 41.13,93.03C40.14,92.34 39.17,91.63 38.21,90.9Z" fill="#1cb0f6ff"/>
  <path d="M50.86,79.61L50.54,75.6C50.73,75.57 50.92,75.55 51.11,75.52C51.8,75.44 52.48,75.39 53.16,75.38L53.47,79.38C52.89,79.37 52.26,79.41 51.6,79.49C51.35,79.52 51.1,79.56 50.86,79.61Z" fill="#1cb0f6ff"/>
</svg>