
<svg xmlns="http://www.w3.org/2000/svg" width="101.0" height="110.0" viewBox="0 0 101.0 110.0">
  <defs>
    <linearGradient id="diamond_container" x1="103.97" y1="62.55" x2="-9.26" y2="62.55" gradientUnits="userSpaceOnUse">
      <stop offset="0.08" stop-color="#faf5a4" stop-opacity="1" />
      <stop offset="0.33" stop-color="#feb0fe" stop-opacity="1" />
      <stop offset="0.58" stop-color="#abb3fc" stop-opacity="1" />
      <stop offset="0.85" stop-color="#41f3e7" stop-opacity="1" />
    </linearGradient>
    <linearGradient id="diamond_container_lip" x1="103.44" y1="66.55" x2="-9.79" y2="66.55" gradientUnits="userSpaceOnUse">
      <stop offset="0.08" stop-color="#ece68e" stop-opacity="1" />
      <stop offset="0.33" stop-color="#f198f1" stop-opacity="1" />
      <stop offset="0.58" stop-color="#8a94f0" stop-opacity="1" />
      <stop offset="0.85" stop-color="#2fe7da" stop-opacity="1" />
    </linearGradient>
  </defs>
  <path stroke="url(#diamond_container_lip)" d="M39.59,25.75C29.68,32.73 21.03,41.37 14.05,51.29C9.45,57.85 9.45,66.72 14.05,73.28C21.03,83.19 29.68,91.87 39.63,98.85C46.18,103.45 55.02,103.45 61.58,98.85C71.5,91.87 80.17,83.23 87.15,73.28C91.75,66.72 91.75,57.88 87.15,51.32C80.17,41.41 71.53,32.73 61.58,25.75C55.02,21.15 46.18,21.15 39.63,25.75H39.59Z" stroke-width="4.5" stroke-linecap="round" stroke-linejoin="round"/>
  <path fill="url(#diamond_container)" stroke="url(#diamond_container)" d="M39.59,21.75C29.68,28.73 21.03,37.38 14.05,47.29C9.45,53.85 9.45,62.72 14.05,69.28C21.03,79.19 29.68,87.87 39.63,94.85C46.18,99.45 55.02,99.45 61.58,94.85C71.5,87.87 80.17,79.23 87.15,69.28C91.75,62.72 91.75,53.88 87.15,47.32C80.17,37.41 71.53,28.73 61.58,21.75C55.02,17.15 46.18,17.15 39.63,21.75H39.59Z" stroke-width="4.5" stroke-linecap="round" stroke-linejoin="round"/>  
  <path d="M41.19,23.63C46.97,19.57 54.78,19.57 60.56,23.63C70.29,30.46 78.75,38.95 85.58,48.65C89.64,54.44 89.64,62.24 85.58,68.02C78.75,77.75 70.26,86.21 60.55,93.05C54.77,97.1 46.97,97.1 41.19,93.04C31.46,86.22 23,77.73 16.16,68.02C12.11,62.24 12.11,54.4 16.16,48.62C22.94,38.99 31.33,30.58 40.95,23.78C41.03,23.73 41.11,23.68 41.19,23.63Z" fill="#FFFBE8"/>
  
  <path d="M51.09,13.27C51.17,17.9 47.56,21.72 43.04,21.79C38.52,21.87 34.8,18.17 34.72,13.54C34.64,8.91 38.25,5.1 42.77,5.02C47.29,4.95 51.01,8.64 51.09,13.27Z" fill="#ffb100ff"/>
  <path d="M32.22,9.59L42.12,17.08C42.65,17.48 42.66,18.26 42.13,18.62C39.6,20.32 36.1,20.17 33.49,18.19C30.87,16.21 29.79,12.89 30.75,9.99C30.95,9.39 31.69,9.18 32.22,9.59Z" fill="#ffb100ff"/>
  <path d="M32.88,10.11C34.29,11.07 35.03,10.32 35.59,9.6L36.16,9.81L34.47,12.2L32.31,10.78C32.35,10.72 32.57,10.57 32.88,10.11Z" fill="#ffb100ff"/>
  <path d="M53.42,14.19C51.44,14.22 51.09,12.75 50.98,12.01L50.18,12.02L50.3,15.17L53.43,15.16L53.42,14.19Z" fill="#da2163ff"/>
  <path d="M21.51,29.69C20.69,22.88 25.61,16.68 32.44,16.07L53.26,14.21C58.2,13.77 62.56,17.41 63,22.35L65.16,46.73C65.16,46.73 48.69,72.63 32.42,68.44C26.59,66.94 15.53,65.32 17.75,53.84C17.83,53.43 18.37,53.31 18.66,53.62C20.24,55.28 21.71,55.26 22.55,54.39C23.67,53.24 23.5,51.96 23.45,50.65C23.23,44.94 22.34,36.61 21.51,29.69Z" fill="#ffb100ff"/>
  <path d="M50.99,12.14C51.13,12.91 51.55,14.22 53.41,14.19L53.41,14.19C58.29,13.84 62.56,17.46 63,22.35L65.16,46.73C65.16,46.73 57.78,58.34 48.01,64.76C48,64.57 47.98,64.4 47.97,64.24C47.92,63.65 47.89,63.23 47.89,62.98C48.05,59.73 47.88,53.7 46.35,47.83C45.59,44.91 43.9,44.03 42.44,43.28C41.2,42.63 40.11,42.07 39.89,40.41C39.75,39.29 32.28,35.98 32.28,35.98C32.28,35.98 31.44,25.58 31.44,22.35C31.44,18.65 33.35,17.6 36.65,16.36C36.65,16.36 39.18,15.78 41.78,15.37C37.95,14.19 38,6.02 44.87,5.34C44.94,5.33 45.02,5.33 45.11,5.33C48.16,6.21 50.5,8.85 50.99,12.14Z" fill="#ffb100ff"/>
  <path d="M76.02,53.57C76.11,53.58 76.2,53.58 76.28,53.59C76.2,53.58 76.11,53.57 76.02,53.57Z" fill="#4b4b4bff"/>
  <path d="M64.5,49.08C68.08,52.74 74.14,53.46 76.28,53.59C74.03,53.32 68.52,55.78 64,64.56C59.48,73.35 49.87,77.93 40.56,74.11C31.26,70.29 26.52,63.51 31.53,56.99" fill="#00000000" stroke-width="1.99415" stroke="#4b4b4bff"/>
  <path d="M40.56,74.11C31.26,70.3 26.52,63.51 31.53,56.99" fill="#00000000" stroke-width="1.99415" stroke="#4b4b4bff"/>
  <path d="M26.93,25.65L45.41,21.95L63.33,21.94L68,63.17L30.82,66.09L26.93,25.65Z" fill="#ffc6b7ff"/>
  <path d="M78.63,76.81C81.12,73.99 83.45,71.03 85.62,67.95C87.35,65.48 88.34,62.65 88.6,59.76L79.62,59.6L77.14,75.51L78.63,76.81Z" fill="#ff4b4bff"/>
  <path d="M36.61,23.71L45.41,21.95L63.33,21.94L68,63.17L46.17,64.88C46.12,64.61 46.06,64.35 46.01,64.13C45.88,63.54 45.79,63.11 45.79,62.86C45.82,62.17 45.92,61.41 46.03,60.57C46.42,57.45 46.95,53.3 44.86,48.1C43.87,45.62 42.58,43.98 41.45,42.55C40.21,40.99 39.18,39.67 38.93,37.78C38.84,37.13 38.8,36.5 38.75,35.84C38.58,33.58 38.39,31.07 36.51,26.59C35.7,26.31 36.1,25 36.61,23.71Z" fill="#ffc09cff"/>
  <path d="M36.61,23.71L45.41,21.95L63.33,21.94L68,63.17H34.78L32.11,33.5C31.77,29.67 33.48,25.95 36.61,23.71V23.71Z" fill="#ffc6b7ff"/>
  <path d="M47.1,95.67C51.67,96.71 56.58,95.83 60.55,93.05C67.88,87.89 74.52,81.8 80.28,74.93C79.01,70.44 77.11,65.1 74.4,63.8C71.2,62.25 70.32,62.03 68.59,61.58L68.45,61.55L67.27,56.47C58.63,62.34 44.6,65.45 30.3,60.16L30.54,63.07C29.92,63.07 29.35,63.07 28.81,63.06C22.25,63.03 20.7,63.19 16.42,68.4C18.39,71.17 20.48,73.83 22.7,76.38L22.74,76.36C22.96,76.6 23.16,76.86 23.36,77.13C28.19,82.58 33.59,87.52 39.49,91.84C40.08,92.25 40.67,92.66 41.26,93.07C43.05,94.33 45.04,95.2 47.1,95.67Z" fill="#ff4b4bff"/>
  <path d="M80.24,74.97C80.21,75.01 80.18,75.05 80.15,75.08C74.42,81.89 67.83,87.93 60.55,93.05C55.25,96.77 48.25,97.08 42.67,93.99C42.18,93.7 41.68,93.39 41.18,93.05C40.02,92.24 38.87,91.4 37.74,90.53C36.08,89.24 34.36,87.82 32.93,86.61C32.01,85.81 31.1,84.99 30.2,84.15C30.2,84.15 30.19,84.14 30.18,84.13L30.2,84.02C31.26,78.1 31.67,75.84 32.79,73.33C33.73,71.22 34.82,70.51 34.82,70.51C34.82,67.73 34.64,61.37 34.64,61.54C50.1,65.36 62.74,59.61 67.22,56.47L68.41,61.55L68.54,61.58C70.27,62.03 71.15,62.25 74.36,63.8C77.07,65.1 78.98,70.47 80.24,74.97Z" fill="#ff4b4bff"/>
  <path d="M65.34,89.52L65.99,77.57C66.15,75.47 65.53,73.37 64.25,71.72L61.67,68.38L60.13,69.67L62.71,73.01C63.67,74.25 64.13,75.81 64.01,77.39L63.26,91.12C63.96,90.59 64.65,90.06 65.34,89.52Z" fill="#ffffffff"/>
  <path d="M32.52,38.44C35.72,38.14 41.36,34.3 35.91,25.41L25.65,30.14L26.77,38.44C27.62,38.54 29.96,38.67 32.52,38.44Z" fill="#ffb100ff"/>
  <path d="M35.92,25.42C41.35,34.31 35.72,38.14 32.52,38.44C32.51,38.44 32.51,38.44 32.5,38.44L31.98,33.77C31.68,31.09 31.38,26.4 31.38,26.4L35.44,25.63L35.92,25.42Z" fill="#ffb100ff"/>
  <path d="M32.58,38.67C32.82,41.03 31.09,43.14 28.73,43.37C26.37,43.61 24.26,41.88 24.02,39.52C23.79,37.16 25.51,35.05 27.88,34.81C30.24,34.58 32.35,36.31 32.58,38.67Z" fill="#ffc6b7ff"/>
  <path d="M53,33.99C52.69,30.82 54.84,28.02 57.81,27.72V27.72C60.78,27.43 63.44,29.76 63.75,32.93L63.89,34.29C64.21,37.46 62.05,40.27 59.08,40.56V40.56C56.12,40.86 53.45,38.53 53.14,35.36L53,33.99Z" fill="#ffffffff"/>
  <path d="M40.8,34.66C40.47,31.29 43.08,28.27 46.64,27.91V27.91C50.2,27.56 53.35,30.01 53.69,33.38L53.82,34.67C54.15,38.05 51.54,41.07 47.98,41.43V41.43C44.42,41.78 41.27,39.33 40.93,35.95L40.8,34.66Z" fill="#ffffffff"/>
  <path d="M48.86,36.57C48.65,35.55 49.32,34.55 50.35,34.35V34.35C51.37,34.14 52.37,34.81 52.58,35.83V35.83C52.78,36.86 52.11,37.85 51.09,38.06V38.06C50.06,38.26 49.06,37.6 48.86,36.57V36.57Z" fill="#4b4b4bff"/>
  <path d="M54.53,35.83C54.33,34.81 55,33.81 56.02,33.6V33.6C57.05,33.4 58.05,34.07 58.25,35.09V35.09C58.46,36.12 57.79,37.11 56.76,37.32V37.32C55.74,37.52 54.74,36.86 54.53,35.83V35.83Z" fill="#4b4b4bff"/>
  <path d="M52.43,42.59C51.72,39.74 45.5,35.52 40.05,38.36L44.84,44.12L52.43,44.12L52.43,42.59Z" fill="#ffc6b7ff"/>
  <path d="M48.25,38.6C55.56,42.14 54.47,51.25 52.94,53.86" fill="#00000000" stroke-linecap="round" stroke-width="1.49561" stroke="#ee9583ff"/>
  <path d="M54.74,41.47C55.45,38.62 60.39,35.28 64.53,36.84L63.45,42.58L54.74,44.25L54.74,41.47Z" fill="#ffc6b7ff"/>
  <path d="M57.27,38.54C57.87,39.36 57.67,40.73 56.72,41.41C55.76,42.1 54.41,41.85 53.81,41.02C53.22,40.19 53.34,36.86 53.41,36.81C53.48,36.76 56.68,37.71 57.27,38.54Z" fill="#ee9583ff"/>
  <path d="M59.2,44.35C59.32,45.56 58.43,46.64 57.22,46.76C56.01,46.88 54.93,45.99 54.81,44.78C54.69,43.57 55.57,42.49 56.79,42.37C58,42.25 59.08,43.13 59.2,44.35Z" fill="#a41414ff"/>
  <path d="M48.56,25.29C41.43,25.47 32.43,27.37 22.28,32.95C21.64,33.3 20.84,32.89 20.78,32.16L20.49,28.73C20.42,27.96 20.81,27.21 21.48,26.84C32.48,20.72 40.77,19.54 48.97,19.34C56.58,19.15 59.82,20.08 63.7,21.31C64.49,21.56 65.04,22.27 65.09,23.09L65.23,25.47C65.27,26.16 64.6,26.69 63.92,26.51C59.93,25.47 55.23,25.13 48.56,25.29Z" fill="#ff4b4bff"/>
  <path d="M31.97,22.12C36.76,20.37 43.49,19.34 48.97,19.34C56.58,19.15 59.82,20.08 63.7,21.31C64.49,21.56 65.04,22.27 65.09,23.09L65.23,25.47C65.27,26.16 64.6,26.69 63.92,26.51C59.93,25.47 55.23,25.13 48.56,25.29C45.07,25.38 39.9,25.71 31.97,28.54V28.54C31.38,28.76 30.74,28.37 30.68,27.75C30.55,26.42 30.38,24.34 30.47,23.13C30.5,22.77 30.76,22.5 31.1,22.39L31.97,22.12Z" fill="#ff4b4bff"/>
  <path d="M55.65,62.49C55.51,61.96 55.81,61.42 56.32,61.26L58.81,60.48C59.2,60.36 59.62,60.48 59.89,60.79L65.18,67.04C65.65,67.59 65.4,68.45 64.71,68.67L58.88,70.49C58.33,70.66 57.75,70.34 57.6,69.78L55.65,62.49Z" fill="#ffffffff"/>
  <path d="M76.28,53.59C74.03,53.32 68.52,55.78 64,64.57C59.48,73.35 49.87,77.93 40.56,74.11C33.87,71.37 29.78,67.32 29.49,62.66" fill="#00000000" stroke-width="1.99415" stroke="#4b4b4bff"/>
  <path d="M75.45,54.61C74.56,54.75 73.2,55.26 71.59,56.48C69.5,58.06 67.09,60.74 64.89,65.02C62.28,70.1 58,73.86 53.04,75.53C52.86,74.87 52.61,74.25 52.25,73.68C56.77,72.23 60.69,68.82 63.11,64.11C65.43,59.61 68.03,56.67 70.39,54.89C72.26,53.48 74.05,52.74 75.45,52.6V54.61Z" fill="#cd1010ff"/>
  <path d="M75.45,54.61C74.56,54.75 73.2,55.26 71.59,56.48C69.5,58.06 67.09,60.74 64.89,65.02C62.28,70.1 58,73.86 53.04,75.53C52.86,74.87 52.61,74.25 52.25,73.68C56.77,72.23 60.69,68.82 63.11,64.11C65.43,59.61 68.03,56.67 70.39,54.89C72.26,53.48 74.05,52.74 75.45,52.6V54.61Z" fill="#4b4b4bff"/>
  <path d="M78.04,39.42C79.54,38.56 81.45,39.08 82.31,40.58C83.17,42.09 84.12,44.05 84.86,46.05C85.57,47.98 86.2,50.26 86.17,52.29L79.92,52.19C79.93,51.34 79.62,49.94 78.99,48.22C78.38,46.57 77.59,44.92 76.88,43.68C76.02,42.18 76.54,40.27 78.04,39.42Z" fill="#ffc6b7ff"/>
  <path d="M72.86,51.18L73.28,56.39" fill="#00000000" stroke-linecap="round" stroke-width="3.15984" stroke="#ce82ffff"/>
  <path d="M85.11,63.33C90.77,63.33 95.36,58.75 95.36,53.1C95.36,47.45 90.78,42.86 85.12,42.85C79.46,42.85 74.88,47.43 74.88,53.08C74.87,58.74 79.46,63.33 85.11,63.33Z" fill="#ecd2ffff"/>
  <path d="M84.54,61.34C89.1,61.35 92.79,57.65 92.79,53.1C92.8,48.54 89.1,44.84 84.54,44.84C79.98,44.84 76.29,48.53 76.28,53.09C76.28,57.64 79.98,61.34 84.54,61.34ZM95.36,53.1C95.36,59.07 90.51,63.91 84.53,63.91C78.56,63.9 73.72,59.06 73.72,53.08C73.72,47.11 78.57,42.27 84.54,42.28C90.52,42.28 95.36,47.13 95.36,53.1Z" fill="#ce82ffff"/>
  <path d="M84.54,61.38C79.96,61.38 76.25,57.66 76.25,53.09C76.25,48.51 79.97,44.8 84.55,44.8C89.13,44.81 92.84,48.52 92.83,53.1C92.83,57.68 89.12,61.38 84.54,61.38Z" fill="#ffffffff"/>
  <path d="M84.54,54.9C83.54,54.89 82.74,54.09 82.74,53.09C82.74,52.1 83.55,51.29 84.54,51.29C85.54,51.29 86.34,52.1 86.34,53.09C86.34,54.09 85.54,54.9 84.54,54.9Z" fill="#ce82ffff"/>
  <path d="M89.34,58.08C89.69,57.74 89.69,57.18 89.34,56.83L86.03,53.52C85.68,53.17 85.13,53.17 84.78,53.52C84.44,53.86 84.44,54.42 84.78,54.76L88.1,58.08C88.44,58.43 89,58.43 89.34,58.08Z" fill="#ce82ffff"/>
  <path d="M92.03,39.97C92.77,41.86 91.84,43.98 89.95,44.72C88.07,45.46 85.94,44.53 85.2,42.65C84.46,40.76 85.39,38.63 87.28,37.89C89.16,37.15 91.29,38.08 92.03,39.97Z" fill="#ffc6b7ff"/>
  <path d="M97.76,44.65C99.04,47.94 98.23,51.33 95.93,52.23C93.64,53.13 90.74,51.19 89.45,47.91C88.16,44.63 88.98,41.24 91.27,40.34C93.57,39.44 96.47,41.37 97.76,44.65Z" fill="#ffc6b7ff"/>
  <path d="M90.36,49.44C90.09,49.03 89.85,48.59 89.64,48.11C90.28,47.86 91.05,47.41 91.78,46.8C92.72,46.02 93.51,45.05 93.9,44.08C94.05,43.7 94.48,43.51 94.87,43.66C95.25,43.81 95.44,44.25 95.29,44.63C94.79,45.91 93.8,47.08 92.73,47.96C91.98,48.58 91.15,49.1 90.36,49.44Z" fill="#ee9583ff"/>
  <path d="M70.33,25.75C71.37,23.8 73.61,22.87 75.78,23.3L76.35,23.41C79.17,23.96 80.9,26.83 80.08,29.59L79.9,30.18C79.29,32.21 77.26,33.46 75.17,33.1L72.89,32.69C71.58,32.46 70.22,32.67 69.04,33.29V33.29C68.48,33.58 67.84,33.11 67.98,32.49C68.27,31.19 68.73,29.31 69.26,27.97C69.54,27.28 69.92,26.5 70.33,25.75Z" fill="#47d7ffff"/>
</svg>